<?xml version="1.0" standalone="no"?>
<!DOCTYPE svg PUBLIC "-//W3C//DTD SVG 20010904//EN"
 "http://www.w3.org/TR/2001/REC-SVG-20010904/DTD/svg10.dtd">
<svg version="1.0" xmlns="http://www.w3.org/2000/svg"
 width="744.000000pt" height="744.000000pt" viewBox="0 0 744.000000 744.000000"
 preserveAspectRatio="xMidYMid meet">
<metadata>
Created by potrace 1.11, written by Peter Selinger 2001-2013
</metadata>
<g transform="translate(0.000000,744.000000) scale(0.100000,-0.100000)"
fill="#000000" stroke="none">
<path d="M3538 7145 c-2 -1 -43 -6 -92 -10 -50 -4 -99 -9 -110 -11 -12 -3 -39
-6 -61 -9 -78 -8 -214 -34 -310 -58 -11 -3 -42 -11 -70 -17 -85 -21 -356 -111
-425 -142 -36 -16 -65 -28 -65 -26 0 5 -320 -154 -325 -161 -3 -4 -20 -14 -37
-22 -18 -8 -33 -17 -33 -21 0 -5 -5 -8 -10 -8 -9 0 -177 -106 -190 -120 -3 -3
-27 -21 -55 -40 -135 -93 -371 -300 -489 -429 -17 -19 -42 -46 -56 -61 -25
-26 -58 -66 -125 -150 -20 -25 -43 -54 -52 -64 -20 -25 -203 -294 -203 -299 0
-2 -22 -42 -48 -88 -45 -79 -117 -223 -157 -314 -9 -22 -21 -49 -26 -60 -27
-62 -103 -278 -115 -325 -2 -8 -11 -42 -20 -75 -19 -72 -23 -87 -35 -143 -5
-24 -11 -47 -14 -51 -2 -5 -7 -32 -10 -61 -3 -29 -8 -56 -10 -60 -5 -8 -10
-45 -21 -138 -3 -29 -7 -63 -10 -75 -22 -106 -22 -634 0 -742 2 -11 7 -47 10
-80 4 -33 9 -67 11 -75 3 -8 7 -32 9 -52 9 -67 18 -111 43 -213 14 -55 26
-104 27 -110 4 -19 37 -130 43 -145 3 -8 7 -19 8 -25 7 -27 97 -263 110 -286
8 -14 12 -29 8 -33 -3 -3 -2 -6 4 -6 9 0 17 -19 23 -47 0 -3 78 -150 114 -218
15 -27 36 -63 47 -80 10 -16 26 -45 36 -62 9 -18 20 -33 25 -33 4 0 8 -6 8
-13 0 -7 8 -22 18 -33 9 -10 23 -31 31 -46 8 -15 22 -36 31 -45 9 -10 21 -25
26 -34 9 -16 26 -39 114 -148 118 -148 341 -372 485 -486 28 -22 52 -42 55
-45 3 -3 30 -23 60 -46 232 -173 490 -319 755 -429 108 -44 333 -120 420 -141
6 -1 30 -7 55 -13 25 -7 54 -13 65 -16 11 -2 56 -11 100 -20 44 -8 94 -18 110
-20 17 -2 46 -6 65 -9 219 -35 698 -41 870 -11 14 2 52 7 84 10 33 3 62 8 65
9 3 2 26 7 51 10 55 7 86 13 111 21 11 4 34 9 52 12 50 8 61 10 77 16 12 4
149 42 185 51 22 5 91 29 100 35 6 3 18 7 27 8 50 8 486 204 523 235 22 19
125 76 125 70 0 -4 4 -2 8 4 4 5 45 35 92 66 196 128 338 245 530 439 173 174
271 289 371 434 19 28 36 52 39 55 13 13 60 91 60 99 0 6 8 15 18 20 9 6 13
11 8 11 -5 0 -2 8 6 18 8 9 26 37 39 62 13 25 26 47 29 50 10 10 120 237 155
320 44 103 95 245 135 375 25 83 75 299 86 375 3 19 7 46 10 60 8 48 17 125
18 153 1 15 3 27 6 27 13 0 18 439 7 605 -7 97 -9 121 -23 215 -3 25 -8 61
-10 80 -3 19 -7 44 -9 55 -3 11 -12 54 -20 95 -9 41 -17 80 -19 85 -2 6 -6 28
-11 50 -4 22 -10 45 -14 50 -3 6 -6 15 -7 20 -1 6 -7 30 -14 55 -7 25 -13 50
-15 55 -4 17 -16 49 -26 67 -5 10 -9 26 -9 36 0 10 -9 34 -19 55 -10 20 -21
47 -25 60 -3 13 -15 45 -27 73 -12 27 -22 50 -21 51 3 7 -154 309 -195 378
-27 44 -55 91 -63 105 -8 14 -17 27 -20 30 -3 3 -14 19 -26 35 -74 107 -100
142 -121 165 -12 13 -23 28 -23 31 0 3 -9 17 -21 30 -11 13 -37 43 -57 67 -83
97 -161 179 -268 283 -86 82 -283 244 -346 284 -27 17 -48 33 -48 38 0 4 -7 7
-15 7 -7 0 -18 6 -22 13 -8 12 -35 31 -63 44 -8 4 -33 19 -54 35 -21 15 -44
28 -49 28 -6 0 -18 6 -26 14 -35 32 -424 220 -477 231 -6 2 -27 10 -45 18 -50
23 -285 97 -307 97 -10 0 -22 3 -26 7 -3 4 -12 8 -19 9 -54 10 -80 16 -104 25
-15 6 -29 10 -31 9 -2 -1 -75 11 -92 15 -3 1 -32 5 -65 9 -33 5 -69 10 -80 13
-11 2 -42 6 -70 9 -27 3 -66 7 -85 10 -37 6 -536 14 -542 9z m1306 -2329 c6 2
36 -15 66 -38 73 -55 219 -158 226 -158 3 0 10 -5 17 -11 15 -13 173 -116 297
-194 52 -32 97 -62 100 -65 3 -4 12 -9 20 -13 18 -8 53 -30 60 -37 3 -3 37
-25 75 -48 39 -24 122 -76 185 -117 63 -41 120 -75 127 -75 6 0 13 -4 15 -9 2
-5 77 -54 168 -110 161 -99 229 -151 231 -174 0 -7 2 -21 4 -31 8 -45 -39 -96
-135 -147 -25 -13 -47 -26 -50 -29 -3 -3 -79 -50 -170 -104 -91 -55 -166 -103
-168 -108 -2 -4 -7 -8 -12 -8 -8 0 -101 -58 -125 -77 -5 -5 -35 -24 -65 -43
-30 -19 -57 -37 -60 -40 -3 -3 -52 -37 -110 -75 -58 -38 -107 -71 -110 -74 -3
-4 -13 -10 -22 -16 -27 -16 -181 -121 -328 -224 -231 -162 -227 -160 -259
-156 -109 14 -223 145 -223 257 0 36 8 43 142 118 63 35 201 114 305 176 270
158 319 188 325 194 3 3 34 23 70 44 36 21 81 49 100 61 19 12 71 45 115 73
44 28 85 56 92 62 7 5 15 10 18 10 22 0 135 91 135 109 0 10 -48 53 -81 71
-15 8 -77 47 -138 85 -148 93 -283 175 -288 175 -2 0 -23 13 -46 29 -60 41
-375 221 -387 221 -6 0 -10 5 -10 10 0 6 -4 10 -9 10 -5 0 -80 40 -167 88
-140 79 -159 92 -169 123 -8 23 -9 42 -3 59 6 14 11 33 14 44 4 21 26 56 57
92 41 47 131 91 151 73 5 -4 14 -6 20 -3z m-2054 -27 c22 -13 40 -25 40 -28 0
-4 10 -17 23 -31 52 -58 72 -109 68 -175 -3 -43 -10 -50 -100 -97 -164 -87
-229 -123 -253 -140 -16 -11 -28 -16 -28 -12 0 4 -8 0 -17 -8 -10 -8 -76 -48
-148 -88 -71 -40 -131 -76 -133 -81 -2 -5 -12 -9 -22 -9 -10 0 -20 -4 -22 -8
-4 -10 -105 -72 -118 -72 -6 0 -10 -4 -10 -10 0 -5 -4 -10 -9 -10 -6 0 -81
-45 -168 -100 -87 -55 -167 -104 -179 -109 -25 -11 -94 -75 -94 -87 0 -8 229
-164 254 -173 6 -2 13 -7 16 -11 3 -3 68 -44 145 -91 77 -46 142 -87 143 -91
2 -5 7 -8 12 -8 5 0 45 -22 90 -50 45 -27 85 -50 90 -50 5 0 10 -4 12 -8 2 -5
30 -23 63 -42 33 -18 68 -40 78 -48 9 -8 17 -11 17 -7 0 4 8 1 18 -7 9 -9 40
-28 67 -43 129 -73 184 -102 230 -123 55 -25 77 -57 68 -100 -3 -15 -6 -33 -6
-39 0 -7 -3 -13 -7 -13 -3 0 -11 -15 -18 -32 -27 -75 -143 -162 -200 -152 -21
4 -105 55 -122 75 -6 6 -185 131 -250 174 -25 17 -47 32 -50 35 -14 15 -551
370 -559 370 -5 0 -11 4 -13 8 -6 16 -489 312 -509 312 -5 0 -9 4 -9 8 0 5
-10 14 -23 21 -79 42 -67 150 22 197 20 11 42 25 49 31 7 7 20 13 28 13 8 0
14 3 14 8 0 4 20 18 45 32 25 14 45 28 45 32 0 5 6 8 13 8 6 0 55 29 109 63
53 34 116 74 140 88 23 15 103 65 176 113 74 47 137 86 141 86 4 0 16 8 27 19
11 10 31 24 45 31 13 7 91 58 172 112 82 54 150 98 152 98 6 0 198 132 270
186 94 70 113 73 185 33z"/>
</g>
</svg>
